<?xml version="1.0" encoding="utf-8"?>
<!-- Generator: Adobe Illustrator 22.0.1, SVG Export Plug-In . SVG Version: 6.00 Build 0)  -->
<svg version="1.1" id="Layer_1" xmlns="http://www.w3.org/2000/svg" xmlns:xlink="http://www.w3.org/1999/xlink" x="0px" y="0px"
	 viewBox="0 0 125 125" style="enable-background:new 0 0 125 125;" xml:space="preserve">
<path class="st0" d="M107.6,85.4c-5.6-17.9-17.3-32-32.7-43.6c-1-0.8-2.1-1.4-3.3-2.1c0.7-0.4,1.3-0.9,1.9-1.7
	c2.6-3.2,5.6-6.1,8.5-9.2c4.8-5.1,4.2-8.3-2.1-12c-1.3,1.5-2.7,3-4.1,4.4c-0.2-0.1-0.3-0.2-0.5-0.3c1.4-3.2,2.8-6.5,4.4-10.3
	c-10.3-3.6-20.1-4.6-30-0.6c-0.9,0.4-1.7,2.4-1.5,3.5c0.9,3.7,2.2,7.2,3.3,10.8c-0.2,0.1-0.4,0.1-0.6,0.2c-1.2-2.1-2.5-4.2-3.5-6.4
	c-0.9-1.8-2-2.2-3.8-1c-1.2,0.8-2.5,1.5-3.6,2.4c-3.2,2.8-3.2,4.8-0.3,8c2.1,2.3,4.2,4.6,6.2,6.9c1.9,2.2,3.5,4.1,6.1,4.9
	c-1.2,0.6-2.4,1.3-3.5,2.1C36.1,50.7,25.9,62,18.9,75.5C15.2,82.6,13,90,14,98c1,8.2,6.9,15.1,15.5,16.5c21.3,3.7,42.7,3.5,64.1,0
	c6.5-1.1,10.5-4.9,13.2-10.2C109.8,98.2,109.6,91.8,107.6,85.4z"/>
<text transform="matrix(1 0 0 1 -38.2524 62.6101)"><tspan x="0" y="0" class="st0" style="font-family:'MyriadPro-Regular'; font-size:9.3603px;">3500</tspan><tspan x="0" y="11.2" class="st2" style="font-family:'MyriadPro-Regular'; font-size:9.3603px;">  350</tspan></text>
<path class="st0" d="M-93.8,85.9c-0.3,0-0.6,0-0.9,0c-0.1,0-0.2-0.1-0.3-0.1c-0.9-1-1.8-2-2.6-3.1c-0.1-0.2-0.1-0.5-0.1-0.8
	c0.3,0,0.6,0,0.8,0c0.4-0.1,0.8-0.2,1.2-0.3c0.4-0.2,0.6-0.6,0.6-1c-0.9,0-1.9,0-2.8,0c0.1-0.5,0.4-0.7,0.9-0.7c0.6,0,1.2,0,1.8,0
	c-0.2-0.3-0.4-0.5-0.7-0.6c-0.4-0.1-0.8-0.1-1.2-0.2c-0.3,0-0.6,0-0.9,0c0.2-0.2,0.3-0.4,0.4-0.6c0,0,0.1-0.1,0.2-0.1
	c1.5,0,3,0,4.5,0c0,0,0,0,0.1,0c-0.1,0.2-0.2,0.4-0.4,0.6c0,0.1-0.1,0.1-0.2,0.1c-0.3,0-0.7,0-1.1,0c0.1,0.2,0.2,0.5,0.3,0.7
	c0,0.1,0.1,0.1,0.2,0.1c0.4,0,0.7,0,1.2,0c-0.2,0.2-0.3,0.5-0.4,0.6c-0.1,0.1-0.2,0.1-0.3,0.1c-0.1,0-0.3,0-0.4,0
	c-0.1,0-0.1,0.1-0.2,0.1c-0.4,1.1-1.1,1.6-2.3,1.7c0,0-0.1,0-0.2,0C-95.6,83.6-94.7,84.7-93.8,85.9C-93.8,85.8-93.8,85.9-93.8,85.9z
	"/>
<path class="st1" d="M67.5,94.6c-1.2,0-2.5,0-3.7,0c-0.4,0-0.9-0.3-1.1-0.6c-3.6-4.3-7.3-8.5-10.8-12.9c-0.6-0.7-0.4-1.9-0.6-3.1
	c1.2,0,2.3,0.2,3.3,0c1.7-0.3,3.5-0.6,5.1-1.3c1.7-0.7,2.6-2.3,2.7-4.3c-3.9,0-7.8,0-11.7,0c0.6-2.2,1.6-3,3.7-3c2.5,0,4.9,0,7.6,0
	c-0.7-1.3-1.6-2.2-2.8-2.5c-1.6-0.4-3.2-0.6-4.8-0.7c-1.2-0.1-2.4,0-3.9,0c0.7-1,1.2-1.8,1.8-2.6c0.2-0.2,0.6-0.3,0.9-0.3
	c6.3,0,12.6,0,18.9-0.1c0.1,0,0.1,0.1,0.3,0.1c-0.5,0.8-1,1.7-1.6,2.4c-0.2,0.2-0.6,0.3-1,0.3c-1.4,0-2.9,0-4.4,0
	c0.5,1,0.8,2,1.3,2.9c0.1,0.2,0.6,0.3,0.9,0.3c1.5,0,3.1,0,4.8,0c-0.6,1-1.1,1.9-1.8,2.7c-0.2,0.3-0.9,0.2-1.4,0.3
	c-0.6,0-1.2,0-1.9,0c-0.2,0-0.6,0.3-0.7,0.5c-1.7,4.8-4.5,6.8-9.5,7.2c-0.2,0-0.3,0-0.8,0.1c3.9,4.8,7.6,9.5,11.4,14.2
	C67.7,94.3,67.6,94.4,67.5,94.6z"/>
<path class="st2" d="M-75,88.8c-0.3,0-0.6,0-0.9,0c-0.1,0-0.2-0.1-0.3-0.1c-0.9-1-1.8-2-2.6-3.1c-0.1-0.2-0.1-0.5-0.1-0.8
	c0.3,0,0.6,0,0.8,0c0.4-0.1,0.8-0.2,1.2-0.3c0.4-0.2,0.6-0.6,0.6-1c-0.9,0-1.9,0-2.8,0c0.1-0.5,0.4-0.7,0.9-0.7c0.6,0,1.2,0,1.8,0
	c-0.2-0.3-0.4-0.5-0.7-0.6c-0.4-0.1-0.8-0.1-1.2-0.2c-0.3,0-0.6,0-0.9,0c0.2-0.2,0.3-0.4,0.4-0.6c0,0,0.1-0.1,0.2-0.1
	c1.5,0,3,0,4.5,0c0,0,0,0,0.1,0c-0.1,0.2-0.2,0.4-0.4,0.6c0,0.1-0.1,0.1-0.2,0.1c-0.3,0-0.7,0-1.1,0c0.1,0.2,0.2,0.5,0.3,0.7
	c0,0.1,0.1,0.1,0.2,0.1c0.4,0,0.7,0,1.2,0c-0.2,0.2-0.3,0.5-0.4,0.6c-0.1,0.1-0.2,0.1-0.3,0.1c-0.1,0-0.3,0-0.4,0
	c-0.1,0-0.1,0.1-0.2,0.1c-0.4,1.1-1.1,1.6-2.3,1.7c0,0-0.1,0-0.2,0C-76.7,86.5-75.8,87.6-75,88.8C-74.9,88.7-75,88.8-75,88.8z"/>
</svg>
